<?xml version="1.0" encoding="utf-8"?>
<!-- Generator: Adobe Illustrator 23.0.0, SVG Export Plug-In . SVG Version: 6.00 Build 0)  -->
<svg version="1.1" id="Capa_1" xmlns="http://www.w3.org/2000/svg" xmlns:xlink="http://www.w3.org/1999/xlink" x="0px" y="0px"
	 viewBox="0 0 98.6 98.6" style="enable-background:new 0 0 98.6 98.6;" xml:space="preserve">
<style type="text/css">
	.st0{fill:#FFFFFF;}
</style>
<g>
	<g>
		<path class="st0" d="M60.4,21c2.8,0.4,5.4,1.1,8.1,1.9c4.6,1.4,9,3.4,13.2,6c0.3,0.2,0.7,0.3,1,0.3c4.8,0,9.7,0,14.5,0
			c0.4,0,0.8,0,1.2,0.1c0,0.1,0,0.1,0,0.2c-0.2,0.3-0.5,0.7-0.7,1c-1.6,2.5-3,5.2-3.9,8.1c-0.1,0.3-0.1,0.6,0.1,0.9
			c4.3,6.2,5.7,13,3.9,20.3c-1.6,6.4-5.3,11.4-10.9,15c-4,2.5-8.4,3.7-13.1,3.8c-2,0-4-0.3-5.9-0.8c-4.7-1.2-8.8-3.6-12.1-7.1
			c-0.4-0.5-0.9-1-1.3-1.5c-1.8,2.6-3.5,5.2-5.3,7.9c-1.8-2.6-3.5-5.2-5.2-7.8c-0.1,0.1-0.2,0.1-0.2,0.1c0,0-0.1,0.1-0.1,0.1
			c-4,4.8-9.1,7.7-15.3,8.7c-3.4,0.5-6.8,0.3-10.2-0.6c-4.7-1.3-8.8-3.8-12-7.5C3,66.4,1.1,62.2,0.3,57.5c-0.8-4.4,0.2-8.7,0.4-9.8
			c0.7-3,2.1-5.8,3.8-8.3c0.1-0.2,0.2-0.5,0.1-0.7c-0.7-2.7-2-5.1-3.5-7.4c-0.4-0.6-0.8-1.1-1.2-1.7c0-0.1,0-0.1,0-0.2
			c0.1,0,0.2,0,0.2,0c5,0,9.9,0,14.9,0c0.2,0,0.5-0.1,0.6-0.2c3.5-2.2,7.2-4,11.1-5.4c2.8-1,5.7-1.8,8.6-2.3
			c2.8-0.5,5.7-0.9,8.6-1.1C51.1,19.7,56.7,20.5,60.4,21z M54.2,53.7c0,10.9,8.8,19.8,19.7,19.7c10.9,0,19.7-8.7,19.7-19.7
			c0-11.3-9.2-19.9-20.1-19.6C62.7,34.4,54.3,43,54.2,53.7z M24.7,34.1C14.1,34,4.9,42.8,5,54.1c0.2,10.5,8.8,19.4,19.9,19.3
			c10.8-0.1,19.5-8.9,19.5-19.6C44.4,42.8,35.6,34.1,24.7,34.1z M25.7,28.9c6,0.4,11.2,2.4,15.7,6.5c4.4,4,7,9.1,8,15
			c1-5.8,3.5-10.8,7.8-14.8c4.4-4,9.5-6.1,15.4-6.5c-7-3.1-14.3-4.4-21.9-4.6C42,24.3,33.7,25.6,25.7,28.9z"/>
		<path class="st0" d="M73.8,41.3c6.7,0,12.2,5.4,12.2,12.1c0,6.8-5.4,12-11.7,12.2c-7.1,0.3-12.7-5.4-12.7-12.2
			C61.6,46.6,67.3,41.2,73.8,41.3z M81.8,53.5c0-4.4-3.6-8-7.9-8c-4.4,0-8,3.5-8,7.9c0,4.4,3.6,8,8,8C78.2,61.5,81.8,57.9,81.8,53.5
			z"/>
		<path class="st0" d="M24.4,41.3c6.7,0,12.2,5.4,12.2,12.2c0,6.8-5.4,11.9-11.6,12.2c-7.1,0.3-12.8-5.3-12.8-12.2
			C12.2,46.5,17.9,41.2,24.4,41.3z M32.4,53.5c0-4.4-3.6-7.9-8-7.9c-4.3,0-7.9,3.6-7.9,8c0,4.4,3.6,8,8,8
			C28.8,61.5,32.4,57.8,32.4,53.5z"/>
		<path class="st0" d="M73.8,49.4c2.2,0,4.1,1.8,4,4c0,2.2-1.8,4-4,4c-2.3,0-4.1-1.8-4.1-4C69.8,51.2,71.6,49.4,73.8,49.4z"/>
		<path class="st0" d="M24.4,49.4c2.3,0,4.1,1.8,4.1,4.1c0,2.2-1.8,4.1-4.1,4.1c-2.3,0-4.1-1.8-4.1-4.1
			C20.3,51.2,22.1,49.4,24.4,49.4z"/>
	</g>
</g>
</svg>
