<svg id="Capa_1" data-name="Capa 1" xmlns="http://www.w3.org/2000/svg" viewBox="0 0 44.28 16.15"><title>detalle</title><path d="M11.75,6.6l0,.19-.3,0c-.05-.08-.05-.13,0-.18a.19.19,0,0,0,.07-.18,9.2,9.2,0,0,1-3.33-5C7,5.14,5.37,6.75,1.72,8a9.13,9.13,0,0,1,5,3.43l.17,0a2,2,0,0,1,0,.23h0a13.15,13.15,0,0,1,1.32,2.86,12.08,12.08,0,0,1,1.61-3.28H9.78A.32.32,0,0,0,9.87,11L10,11a9.64,9.64,0,0,1,4.68-3A12.08,12.08,0,0,1,11.75,6.6ZM8.6,10a.38.38,0,0,1,.22.33l-.44-.13C8.4,10,8.47,9.89,8.6,10ZM8.23,7.61c0-.15.11-.25.4-.28,0,.16,0,.26-.12.31A.24.24,0,0,1,8.23,7.61ZM7.5,6,7.26,6a1,1,0,0,1,0-.17l.24,0Zm0,.23c0,.15,0,.24-.1.28a.33.33,0,0,1-.31-.06C7.1,6.26,7.23,6.19,7.53,6.23Zm-1.11-1a.19.19,0,0,0,.12-.07l.18,0c.13.06.1.15-.1.24S6.36,5.39,6.42,5.19Zm.2.38a.92.92,0,0,1,.31.32l-.31,0a.2.2,0,0,0-.26-.21C6.37,5.53,6.46,5.48,6.62,5.57Zm-.75.84c.16,0,.26,0,.29.06a1.82,1.82,0,0,0,.13.3A1.4,1.4,0,0,0,6,6.63.25.25,0,0,1,5.87,6.41ZM7.28,11.9c0-.14,0-.27,0-.41l.3,0C7.65,11.79,7.57,11.94,7.28,11.9Zm.47-.75,0-.23.18,0,0,.23ZM9,12.06a.5.5,0,0,0-.1.18c-.2,0-.28-.1-.23-.38l.3,0C9,11.94,9.05,12,9,12.06Zm.36-3a.35.35,0,0,1,.21.27Q9.4,9.35,9.37,9.11Zm1-.09c-.08.05-.09.12,0,.24-.2.06-.3,0-.31-.09a1.49,1.49,0,0,1,0-.41l.36,0C10.44,8.88,10.43,9,10.36,9Zm0-.35c0-.08,0-.15,0-.23l.3,0a1.79,1.79,0,0,1,0,.23Zm2.52-.55A.22.22,0,0,1,13,7.89c.12,0,.19,0,.22.12a.26.26,0,0,1-.06.26A.27.27,0,0,1,12.9,8.12Z" style="fill:#bf532a"/><path d="M41.3,6.6l0,.18-.3,0a.11.11,0,0,1,0-.17.23.23,0,0,0,.07-.18,9.24,9.24,0,0,1-3.33-5C36.53,5.14,34.92,6.74,31.28,8a9.15,9.15,0,0,1,5,3.43l.17,0a2,2,0,0,0,0,.23h0a13.74,13.74,0,0,1,1.32,2.87,12.15,12.15,0,0,1,1.61-3.29h-.06a.3.3,0,0,0,.1-.24l.16,0a9.58,9.58,0,0,1,4.69-3A13.14,13.14,0,0,1,41.3,6.6ZM38.15,10a.37.37,0,0,1,.23.32l-.45-.12C38,10,38,9.88,38.15,10Zm-.37-2.34c0-.16.12-.25.4-.28,0,.15,0,.26-.12.3A.26.26,0,0,1,37.78,7.61ZM37.06,6l-.25,0c0-.06,0-.12,0-.18l.25,0Zm0,.23c.06.15,0,.24-.1.27a.31.31,0,0,1-.31,0C36.65,6.26,36.78,6.18,37.08,6.23Zm-1.1-1a.19.19,0,0,0,.11-.08h.18c.14.06.1.14-.09.24S35.91,5.39,36,5.19Zm.19.38a.82.82,0,0,1,.31.31l-.3,0a.21.21,0,0,0-.27-.2C35.93,5.52,36,5.47,36.17,5.57Zm-.74.84c.16-.06.25,0,.29.06a1.7,1.7,0,0,0,.12.3,1,1,0,0,0-.26-.14A.23.23,0,0,1,35.43,6.41Zm1.4,5.48c0-.13,0-.27,0-.4l.3,0C37.21,11.79,37.12,11.94,36.83,11.89Zm.48-.74a2,2,0,0,1,0-.24l.18,0,0,.23Zm1.25.91a.72.72,0,0,0-.1.18c-.2,0-.28-.11-.22-.38l.3,0C38.59,11.93,38.6,12,38.56,12.06Zm.37-3a.32.32,0,0,1,.21.27A.26.26,0,0,1,38.93,9.11Zm1-.09c-.07.05-.08.12,0,.23-.2.06-.3,0-.31-.08a1.93,1.93,0,0,1,0-.41l.36,0Q40,8.94,39.91,9Zm0-.36,0-.22.3,0,0,.24Zm2.52-.54a.24.24,0,0,1,.06-.24c.12,0,.2,0,.23.12a.27.27,0,0,1-.06.27C42.56,8.24,42.49,8.2,42.46,8.12Z" style="fill:#bf532a"/></svg>