<svg xmlns="http://www.w3.org/2000/svg" viewBox="0 0 58.79 45.54"><defs><style>.cls-1{fill:#9aa278;}</style></defs><title>flechas verdes </title><g id="Capa_2" data-name="Capa 2"><g id="Capa_1-2" data-name="Capa 1"><path class="cls-1" d="M36.34,45.18q-2.39,0-7.58-6.83v-.53q0-1.57,10.12-11.26l3.3-3.62v-.29q0-.66-9.87-9.56Q28.39,9.4,28.36,7.84,28.35,6,35.48,0h.57q2.06,0,14,12.28Q58.75,20,58.79,22.73,58.8,24,48.1,34.52q-.48,0-8.49,9A6.91,6.91,0,0,1,36.34,45.18ZM8,45.54q-2.39,0-7.59-6.83v-.52q0-1.57,10.13-11.26l3.3-3.63V23q0-.68-9.86-9.57C1.33,11,0,9.25,0,8.2Q0,6.34,7.11.37h.57q2.06,0,14,12.29,8.7,7.73,8.73,10.44,0,1.25-10.69,11.79-.48,0-8.48,9A6.86,6.86,0,0,1,8,45.54ZM40.66,36v-.29h-.57V36Zm-28.36.36v-.29h-.57v.29Zm25.82-1.19v-.24c0-.38-.21-.57-.53-.56v.81Zm-28.36.36v-.24c0-.38-.22-.56-.53-.56v.81Zm30.29-3.15.28-.53h-.87C39.47,32.21,39.66,32.38,40.05,32.38Zm-28.37.36.28-.53H11.1C11.11,32.57,11.3,32.75,11.68,32.74ZM48.29,27h-.53c-.28,0-.57.28-.85.83h.58C47.74,27.83,48,27.56,48.29,27ZM43,27.89a7.28,7.28,0,0,1,.28-1.09h-1.1v.28C42.23,27.35,42.5,27.62,43,27.89Zm-23.12-.51H19.4c-.29,0-.57.27-.85.82h.57C19.38,28.2,19.64,27.93,19.92,27.38Zm-5.24.88a8,8,0,0,1,.27-1.1H13.86v.29C13.86,27.71,14.14,28,14.68,28.26Zm30.56-.63v-.57H45v.57ZM16.87,28v-.57h-.24V28Zm31.94-4.85a4.08,4.08,0,0,1-1.41-2.22,1.77,1.77,0,0,1,.8-.3l1.16.56.23-.58v-.24c-.07-.38-.25-.57-.54-.56l-1.66.3a2,2,0,0,1-.3-1.09H46.8c0,.74-.08,1.1-.27,1.11l.29.52v.86l-.51.82v.57l.53-.3C47.58,23,48,23.42,48,24,48.25,24,48.53,23.69,48.81,23.14Zm-28.36.37A4.07,4.07,0,0,1,19,21.28a2,2,0,0,1,.81-.3l1.15.56.24-.58v-.23c-.07-.38-.24-.57-.53-.57L19,20.47a2.2,2.2,0,0,1-.3-1.1h-.28c0,.73-.08,1.1-.28,1.1l.3.52v.86l-.52.82v.57l.52-.29c.74.37,1.11.83,1.12,1.37C19.89,24.33,20.17,24.05,20.45,23.51Zm28.94-.14v-.52h-.29v.53ZM21,23.74v-.53h-.28v.52Zm27.16-5.32v-.57h-.28v.58Zm-28.37.37v-.58h-.29v.57Zm30.9-.69c-.08-.38-.27-.56-.59-.56h-.28v.57Zm-28.37.37c-.07-.38-.26-.57-.58-.57h-.29v.57Zm25.83-.91v-.81q-.1-.57-.54-.57c0,.39-.37.58-1.14.59v.29c0,.35.2.52.58.52Zm-28.37.37v-.82c-.07-.38-.24-.57-.53-.56,0,.38-.38.57-1.14.58v.29c0,.35.2.53.58.52ZM44.58,16.8v-.58H44C44,16.62,44.19,16.8,44.58,16.8Zm-28.37.36v-.57h-.57A.51.51,0,0,0,16.21,17.16ZM45.38,16v-.28h-.52V16ZM17,16.34v-.29h-.52v.29Zm25-3.09v-.58c0-.25-.29-.52-.87-.8,0,1.05-.71,1.7-2.18,1.94v.29l1.38,0C41.5,13.94,42.05,13.66,42.05,13.25Zm-28.37.36V13c0-.26-.3-.52-.88-.8,0,1-.71,1.69-2.17,1.93v.29l1.38,0C13.13,14.3,13.69,14,13.68,13.61Zm25-.61v-.28h-.57V13Zm-28.37.37v-.29H9.76v.28Z"/></g></g></svg>