<svg id="Capa_1" data-name="Capa 1" xmlns="http://www.w3.org/2000/svg" viewBox="0 0 512 512"><title>whatsapp1-01</title><path d="M256.06,12h-.12C121.4,12,12,121.43,12,256A242.14,242.14,0,0,0,58.45,399L28,489.66l93.79-30A241.88,241.88,0,0,0,256.06,500C390.6,500,500,390.54,500,256S390.6,12,256.06,12Z" style="fill:none;stroke:#bf532a;stroke-miterlimit:10;stroke-width:23px"/><path d="M398,356.56C392.15,373.18,368.79,387,350.15,391c-12.75,2.72-29.4,4.88-85.46-18.36-71.7-29.7-117.88-102.57-121.48-107.3s-29-38.58-29-73.59,17.78-52.07,25-59.39c5.88-6,15.61-8.75,24.94-8.75,3,0,5.74.15,8.18.27,7.17.31,10.76.74,15.49,12,5.89,14.18,20.22,49.2,21.93,52.8s3.48,8.48,1,13.2c-2.29,4.88-4.3,7.05-7.9,11.2s-7,7.32-10.62,11.77c-3.29,3.87-7,8-2.86,15.19,4.15,7,18.48,30.41,39.59,49.2,27.23,24.24,49.32,32,57.21,35.28,5.89,2.44,12.91,1.86,17.21-2.71,5.46-5.89,12.2-15.65,19.06-25.25,4.88-6.9,11-7.75,17.51-5.31,6.58,2.29,41.45,19.52,48.61,23.09s11.9,5.3,13.64,8.32S403.93,339.91,398,356.56Z" style="fill:none;stroke:#bf532a;stroke-miterlimit:10;stroke-width:23px"/></svg>